<svg width="44" height="44" viewBox="0 0 44 44" fill="none" xmlns="http://www.w3.org/2000/svg" role="img" aria-labelledby="logoTitle logoDesc">
  <title id="logoTitle">SpellGrid logo mark</title>
  <desc id="logoDesc">A gradient square SpellGrid mark with an S and grid points.</desc>
  <defs>
    <linearGradient id="logoGradient" x1="4" y1="4" x2="40" y2="40" gradientUnits="userSpaceOnUse">
      <stop stop-color="#38BDF8"/>
      <stop offset="0.55" stop-color="#A78BFA"/>
      <stop offset="1" stop-color="#22C55E"/>
    </linearGradient>
  </defs>
  <rect x="2" y="2" width="40" height="40" rx="13" fill="url(#logoGradient)"/>
  <path d="M29.4 14.9c-1.8-1.4-4.2-2.1-7-2.1-4.8 0-8 2.3-8 6 0 3.2 2.3 4.8 7 5.6l2.3.4c2 .4 2.8.9 2.8 2 0 1.4-1.5 2.2-4 2.2-2.8 0-5.1-.9-7.1-2.6l-2.7 3.8c2.4 2.1 5.7 3.2 9.8 3.2 5.5 0 9-2.5 9-6.6 0-3.3-2.1-4.9-6.9-5.8l-2.5-.5c-2-.4-2.8-.9-2.8-1.9 0-1.2 1.2-1.9 3.2-1.9 2.2 0 4.1.6 5.9 1.9l1-3.7Z" fill="#04111D"/>
  <circle cx="12" cy="12" r="2" fill="#04111D" opacity="0.7"/>
  <circle cx="32" cy="32" r="2" fill="#04111D" opacity="0.7"/>
  <circle cx="32" cy="12" r="1.5" fill="#04111D" opacity="0.35"/>
  <circle cx="12" cy="32" r="1.5" fill="#04111D" opacity="0.35"/>
</svg>
